<svg xmlns="http://www.w3.org/2000/svg" width="256" height="256"><path fill="#1976D2" fill-opacity=".016" fill-rule="evenodd" d="M0 128.004v128.004l128.25-.254 128.25-.254.254-127.75L257.008 0H0zm.485.496c0 70.4.119 99.053.265 63.672s.146-92.98 0-128S.485 58.1.485 128.5"/><path fill="#1976D2" fill-opacity=".259" fill-rule="evenodd" d="M109.5 1.468C93.194 5.026 79.074 12.815 66.945 24.945 54.52 37.369 46.957 51.297 43.303 68.483c-2.337 10.993-1.316 30.624 2.16 41.517 7.262 22.763 22.975 41.22 44.037 51.727 13.621 6.796 17.517 7.658 36.5 8.075 12.035.264 19.218-.019 23-.906 7.865-1.844 19.118-7.166 27.708-13.105 7.48-5.171 20.292-17.975 20.292-20.28 0-.686 1.781-4.343 3.958-8.129 2.176-3.785 5.394-11.157 7.151-16.382 2.766-8.23 3.253-11.238 3.637-22.5.88-25.836-6.838-45.703-24.691-63.555-12.298-12.299-26.377-19.996-43.031-23.527-8.11-1.72-26.536-1.693-34.524.05m1.5 3.984C94.317 9.025 82.259 15.643 69.998 27.957 59.211 38.791 52.879 49.421 48.827 63.5c-3.287 11.421-3.293 31.475-.013 43 2.982 10.479 11.056 25.918 13.719 26.233 1.464.174 4.99-3.619 13.792-14.837 10.699-13.633 11.985-14.933 13.5-13.635 2.137 1.83 4.175 2.994 4.175 2.384 0-.261-1.802-2.425-4.005-4.809-18.519-20.047-14.62-51.134 8.269-65.928C104.296 32.009 114.521 29 121.737 29c5.891 0 15.235 2.739 20.579 6.032 2.649 1.632 5.012 2.968 5.25 2.968s.434-2.925.434-6.5V25l16.75-.038 16.75-.037-4-3.494c-5.012-4.379-22.053-12.909-30-15.018-8.28-2.196-28.271-2.723-36.5-.961m4.932 33.557c-7.033 1.19-14.103 5.304-19.767 11.501-9.498 10.393-11.729 25.685-5.58 38.254 1.443 2.949 2.828 5.156 3.079 4.905s.423-9.279.382-20.062L93.972 54h3.073c1.898 0 2.824.403 2.422 1.054-1.177 1.904 3.889 7.771 8.624 9.989 3.342 1.565 5.528 1.98 7.8 1.481 4.337-.953 8.748-4.901 10.12-9.057L127.155 54h9.062c7.458 0 9.298.31 10.391 1.75 1.173 1.545 1.332 1.261 1.36-2.427.028-3.628-.461-4.584-3.718-7.27-6.899-5.691-18.809-8.653-28.318-7.044M207 85c0 3.3-.338 5.929-.75 5.841-1.454-.308-4.25 1.388-4.25 2.577 0 .662-1.978 3.034-4.395 5.271l-4.396 4.068-.648 10.372c-.635 10.165-.6 10.405 1.763 12.068l2.411 1.696 3.598-7.696c1.978-4.234 4.295-10.622 5.147-14.197 1.66-6.968 3.25-26 2.171-26-.358 0-.651 2.7-.651 6M90.559 130.532c-1.816 1.373-1.696 1.468 1.872 1.468 3.277 0 3.639-.211 2.569-1.5-1.522-1.834-1.978-1.831-4.441.032M58 176.195c-4.137 2.799-5.809 7.847-5.896 17.805-.075 8.627 1.052 13.026 4.49 17.535 2.812 3.687 2.852 3.925 2.879 17.526.024 12.423.235 14.069 2.128 16.614 1.761 2.368 2.942 2.874 7.296 3.129 4.977.291 5.386.115 9.776-4.214 4.354-4.292 4.798-4.487 8.928-3.921 3.135.43 5.04.141 6.837-1.037 4.064-2.662 5.847-2.028 8.562 3.046 3.92 7.327 5.116 7.577 16.5 3.455 1.65-.597 4.712-1.346 6.805-1.665 2.308-.351 4.669-1.575 6-3.109 1.88-2.167 2.752-2.441 6.069-1.913 3.576.57 4.16.309 7.577-3.393 3.023-3.275 9.176-7.053 11.485-7.053.276 0 2.304 2.441 4.509 5.425 6.707 9.079 11.544 8.373 11.324-1.653-.063-2.9.074-6.244.304-7.431.577-2.968 7.228-5.931 16.413-7.309 4.117-.618 8.842-1.913 10.5-2.879 3.406-1.983 7.213-8.203 7.693-12.568.279-2.538-.09-3.025-2.856-3.76-2.549-.677-3.748-1.989-6.07-6.635l-2.894-5.791 1.951-2.612c3.001-4.02 1.679-7.444-3.404-8.812-5.601-1.508-9.799-.343-13.56 3.763l-3.184 3.476-1.599-3.093c-2.045-3.954-3.436-4.253-19.813-4.251-3.162 0-7.662-.027-10-.059-6.281-.088-70.753.189-74.25.319-1.65.061-4.8-.206-7-.595-3.288-.581-4.623-.286-7.5 1.66m32.176 38.864c-3.346 1.341-2.365 4.101 2.227 6.263 5.28 2.486 8.597 1.597 8.597-2.306 0-4.49-4.966-6.306-10.824-3.957m25.139.948c-4.683 1.887-5.422 8.553-1.018 9.18 3.232.459 3.36 4.263.28 8.301-4.199 5.505-2.819 8.697 2.048 4.74 4.008-3.259 5.491-6.596 4.367-9.822-.642-1.842-.696-4.666-.146-7.613.7-3.744.586-4.797-.567-5.239-1.788-.686-2.238-.645-4.964.453"/><path fill="#1976D2" fill-opacity=".629" fill-rule="evenodd" d="M110 1.896C85.152 7.41 66.927 20.459 53.761 42.163 46.715 53.778 42.026 70.893 42.026 85c0 8.428 2.696 22.684 5.879 31.086 4.732 12.492 14.79 26.093 25.911 35.04 8.044 6.47 22.293 13.833 31.684 16.371 8.032 2.171 26.255 3.02 35.123 1.636 32.307-5.042 58.061-28.067 68.034-60.826 2.38-7.818 2.681-10.436 2.681-23.307s-.301-15.489-2.681-23.307c-7.427-24.397-23.57-43.271-45.979-53.757C147.379.778 126.057-1.667 110 1.896m-3 4.172C90.834 10.29 74.886 20.329 64.409 32.882 57.638 40.993 50.65 54.838 47.99 65.41c-2.748 10.923-2.737 28.341.026 39.18C51.101 116.694 59.946 134 63.047 134c.67 0 20.419-24.005 24.535-29.821.562-.795 10.453 6.559 11.548 8.586 1.043 1.93.902 2.701-.953 5.209-1.197 1.62-2.177 3.188-2.177 3.486 0 .297 3.445.54 7.655.54 7.356 0 7.59-.071 5.998-1.831-.912-1.007-1.319-2.204-.905-2.66.414-.457.228-.53-.412-.164-.681.39-5.493-3.587-11.604-9.589-13.33-13.094-16.887-19.758-17.536-32.854-.691-13.95 3.117-23.998 12.508-32.999C100.483 33.487 109.221 30 121.525 30c8.771 0 16.254 2.415 24.175 7.802 6.254 4.254 18.678 17.487 17.512 18.653-.392.391-.262.621.288.51 2.022-.408 2.963.089 1.694.894-1.055.669-1.082 2.12-.139 7.533.642 3.687.899 9.157.572 12.156L165.033 83H190V33.707l-4.711-5.103c-9.938-10.766-23.566-18.711-38.766-22.598-10.66-2.726-28.953-2.698-39.523.062m84.84 40.121c.187 5.671.028 16.723-.354 24.561L190.792 85h-24.883l.556 3.25c.305 1.787.213 10.563-.205 19.5l-.76 16.251 13.691-.001c13.547 0 17.621.98 12.369 2.977-3.487 1.326-3.753 6.332-.31 5.843 2.921-.415 9.796-12.327 13.459-23.32 2.413-7.24 2.672-9.473 2.729-23.5.048-11.955-.347-16.986-1.728-22-2.039-7.408-8.5-21.135-11.913-25.311l-2.297-2.811zm-81.516-7.798c-5.93 1.923-10.444 4.931-15.292 10.19-6.079 6.595-8.318 12.293-8.811 22.419-.54 11.108 1.976 18.292 8.792 25.108C118.065 119.16 156 104.165 156 72c0-13.6-6.825-25.076-18.435-31-5.953-3.038-7.93-3.531-14.962-3.731-4.738-.135-9.837.331-12.279 1.122M163 86.61c0 .886-1.433 4.298-3.184 7.584-3.478 6.525-11.545 14.397-17.847 17.416-3.851 1.844-3.946 2.017-3.958 7.14-.006 2.888.439 5.25.989 5.25s1-.45 1-1c0-.613 4.833-1 12.5-1H165v-18.5c0-11.667-.369-18.5-1-18.5-.55 0-1 .725-1 1.61m26.986 17.89-.486 17-10.5.554-10.5.555 10.781.195c8.02.146 10.908-.134 11.276-1.092.272-.709.364-8.697.205-17.75l-.29-16.462zM130.5 116.035c-5.709 1.148-15.569 1.398-18.492.469-2.065-.657-2.294-.553-1.335.602 1.14 1.374 1.327 1.922 1.327 3.894 0 .611 4.667 1 12 1h12v-3.5c0-1.925-.338-3.448-.75-3.385s-2.55.477-4.75.92m-42.317 9.705c-6.038 7.657-5.571 8.914 2.88 7.751 4.19-.576 4.937-1.007 4.937-2.848 0-1.262-.913-2.581-2.185-3.156-2.922-1.32-3.516-3.487-.956-3.487 1.531 0 1.926-.522 1.615-2.135-.226-1.175-.555-2.279-.73-2.454s-2.677 2.673-5.561 6.329m73.317 2.214c-12.151.51-13 .677-13 2.546 0 1.904.758 2.013 15.75 2.275l15.75.276v-3.026c0-2.683-.311-3.002-2.75-2.821-1.512.112-8.6.45-15.75.75m-30.05 1.975c-.522.51-2.525 1.113-4.45 1.34-1.925.226-.237.483 3.75.571 5.849.129 7.25-.13 7.25-1.34 0-1.686-4.966-2.119-6.55-.571m-22.637 1.754c.721.289 1.584.253 1.916-.079s-.258-.568-1.312-.525c-1.165.048-1.402.285-.604.604m7.456.01c.973.254 2.323.237 3-.037s-.119-.481-1.769-.461-2.204.244-1.231.498m-37.793 45.703c-1.664.725-3.576 2.528-4.25 4.008-1.549 3.399-1.62 21.637-.098 24.978.944 2.07.786 2.912-.959 5.13-2.89 3.675-6.031 12.462-6.804 19.037C65.235 240.166 64 237.53 64 225.5c0-7.491-.355-11.398-1-11-1.342.83-1.286 24.93.07 29.812 1.449 5.221 3.277 4.162 4.135-2.395 2.4-18.355 4.53-25.666 8.506-29.192 1.816-1.61 2.124-1.629 3.312-.197.747.9 1.31 4.062 1.31 7.353 0 4.789-.517 6.529-3.029 10.197-6.398 9.338-8.744 15.914-6.23 17.468 1.857 1.147 5.703-3.53 8.564-10.415 2.343-5.64 2.762-8.087 2.808-16.381.045-8.185.307-9.75 1.63-9.75.866 0 2.666-1.16 4-2.579 2.152-2.289 2.464-3.658 2.777-12.185.457-12.442-.821-16.907-5.384-18.814-3.992-1.667-3.233-1.664-6.993-.026m75.878-.63c-4.263.687-5.778 3.811-6.333 13.066-.436 7.259-.711 8.338-1.69 6.635-.863-1.501-.888-3.087-.094-6.06 1.264-4.737.483-8.687-2.262-11.432-1.528-1.528-3.334-1.975-7.975-1.975h-6v17c0 15.42.16 17 1.723 17 1.415 0 1.326.277-.5 1.557-3.424 2.398-2.633 3.641 1.277 2.007l3.5-1.462-.015 4.699c-.012 3.864-.61 5.403-3.365 8.66l-3.351 3.96-1.634-3.161c-2.028-3.921-2.061-5.662-.135-7.26 1.68-1.394 1.986-3 .571-3-1.757 0-4.071 3.147-4.071 5.538 0 1.317.736 3.937 1.635 5.823 1.703 3.571 1.253 8.639-.767 8.639-.601 0-3.787 2.025-7.08 4.5-8.686 6.53-10.788 5.976-10.788-2.839 0-3.879.319-4.368 4.5-6.894 2.475-1.495 4.5-3.217 4.5-3.828s-2.025.022-4.5 1.405l-4.5 2.515.011-5.179c.02-9.515.957-12.606 4.377-14.44 1.712-.918 4.912-1.685 7.112-1.704l4-.036.5-13.957c.486-13.569.564-13.972 2.809-14.5 1.27-.299 2.282-.881 2.25-1.293a40 40 0 0 1-.059-2.29c0-1.287-1.361-1.493-8.25-1.25-7.528.265-8.276.475-8.552 2.405-.236 1.656.359 2.246 2.75 2.725l3.052.61v23.999l-2.95 1.525c-1.623.839-3.198 1.526-3.5 1.526s-.55-7.425-.55-16.5V177h-2.392c-2.061 0-2.516.657-3.289 4.75l-.897 4.75-1.847-4.75c-1.675-4.309-2.147-4.75-5.086-4.75-2.828 0-3.318.397-3.864 3.125-.82 4.102-.621 24.672.27 27.875.436 1.569 1.418 2.5 2.636 2.5 1.592 0 2.081-.99 2.72-5.5 1.143-8.083 1.219-8.098 3.665-.75 1.79 5.377 2.66 6.75 4.276 6.75 1.928 0 1.911.099-.331 1.98-1.69 1.417-2.021 2.206-1.163 2.776.928.618.91 2.897-.08 10.138-1.241 9.073-.905 13.576 1.483 19.856 1.354 3.56 5.333 2.829 12.522-2.301 5.617-4.007 6.377-4.306 6.377-2.5 0 1.364.651 2.051 1.941 2.051 2.461 0 3.026-.952 3.436-5.785.384-4.531 4.536-10.953 5.797-8.967.438.689.802 2.44.811 3.891.018 3.215 3.047 7.151 4.688 6.094.645-.416 2.056-3.001 3.136-5.744 1.765-4.487 2.239-4.955 4.712-4.65 3.112.384 4.441-1.099 4.464-4.982.008-1.477.713-2.911 1.597-3.25 2.251-.864 2.418-.794 2.418 1.01 0 1.185.667 1.489 2.5 1.138 1.676-.32 2.5-.029 2.5.884 0 .748-.45 1.361-1 1.361-1.572 0-1.167 2.722.5 3.362.825.316 1.5 1.504 1.5 2.639 0 3.185 2.722 8.955 4.556 9.659 4.212 1.616 4.599-6.275.534-10.904l-2.909-3.314 4.848-5.082c3.589-3.763 5.145-4.794 5.992-3.971.846.822 1.865.255 3.915-2.176l2.771-3.287 1.561 2.287c1.526 2.238 1.628 2.25 4.692.557 2.508-1.385 3.509-1.494 5.024-.548q4.246 2.651 9.855-6.603c3.342-5.515 3.718-6.619 2.256-6.619-.498 0-2.078 2.002-3.512 4.448-3.919 6.688-4.874 6.726-4.054.164.651-5.205.554-5.612-1.33-5.612-1.118 0-2.902 1.194-3.964 2.652-2.293 3.148-4.235 2.413-4.235-1.604 0-2.88 1.467-4.048 5.082-4.048 1.366 0 1.918-.701 1.918-2.437 0-2.018-.558-2.49-3.25-2.75-3.073-.296-3.25-.531-3.25-4.313 0-3.917.083-4.01 4-4.5 3.167-.396 4-.917 4-2.5 0-1.789-.765-2.031-7.25-2.294l-7.25-.294-.1 11.294c-.135 15.285-.472 16.294-5.445 16.294H174.5L174 191l-.5-13.5-2.607-.303c-2.407-.279-2.656.057-3.25 4.39-.354 2.581-.71 8.342-.791 12.803l-.149 8.11-.713-10.057c-.582-8.198-2.001-14.443-3.282-14.443-.122 0-1.568-.355-3.215-.79-1.646-.434-3.959-.634-5.139-.444m-96.905 2.291c-1.459 1.612-1.95 4.091-2.273 11.465C54.492 206.164 56.468 211 63.545 211c5.034 0 8.455-3.624 8.455-8.955 0-3.828-.161-4.045-3-4.045-2.291 0-3 .454-3 1.918 0 4.94-3.242 7.041-4.37 2.832-.99-3.694-.709-16.734.405-18.816 1.511-2.824 2.794-2.374 3.75 1.316.66 2.547 1.369 3.25 3.279 3.25 3.37 0 3.891-5.017.912-8.803-2.751-3.498-9.623-3.849-12.527-.64m22.975 4.281c-.276.717-.371 5.772-.212 11.233.233 8.031.575 9.929 1.788 9.929 2.292 0 2.767-20.992.495-21.864-.864-.331-1.796-.015-2.071.702m75.234-.663c-1.159 1.159-.746 20.153.454 20.894 2.005 1.239 2.857-1.934 2.873-10.697.01-6.013-.392-8.965-1.327-9.741-.738-.612-1.638-.818-2-.456m-19.643 3.002c.02 3.648 1.175 5.442 2.841 4.412 1.891-1.168 1.036-6.497-1.106-6.904-1.334-.253-1.746.339-1.735 2.492M147.3 209.42c-.44.781-2.375 1.569-4.3 1.75l-3.5.33-.303 9c-.327 9.692.45 16.298 1.749 14.88.444-.484 1.813-4.03 3.044-7.88s2.872-8.012 3.647-9.25c1.553-2.48 3.905-3.104 3.021-.801-.655 1.706 1.56 1.017 5.255-1.635 2.659-1.908 2.242-4.814-.69-4.814-1.013 0-2.714-.661-3.782-1.468-2.455-1.857-3.148-1.876-4.141-.112m20.247 2.83c-.215.688-.677 2.967-1.027 5.066-.594 3.565-.506 3.747 1.333 2.763 1.796-.962 6.147-6.94 6.147-8.447 0-1.206-6.065-.625-6.453.618m-5.923 1.289c-.965 2.514-.681 3.163.498 1.136.584-1.004.851-2.036.593-2.293-.257-.258-.749.263-1.091 1.157M149 222.941c0 2.187 1.562 3.577 2.434 2.166.731-1.183-.367-4.107-1.541-4.107-.491 0-.893.873-.893 1.941m-60.376 2.344c-3.557 2.602-3.69 12.708-.185 14.053 2.385.915 7.03-2.947 9.911-8.239 1.566-2.879 2.542-5.54 2.167-5.915-.715-.715-1.482.235-5.443 6.748-2.49 4.095-4.506 5.537-6.239 4.466-.564-.349-.059-1.595 1.183-2.917 2.271-2.418 3.231-8.502 1.442-9.138-.573-.203-1.848.221-2.836.942m78.396 7.784c1.032 3.599 1.7 4.545 2.584 3.66.869-.868-1.016-6.033-2.366-6.483-.815-.272-.877.526-.218 2.823m-91.368 3.681c-.769 1.512-1.702 3.875-2.073 5.25-.565 2.093-.495 2.213.428.741 1.605-2.562 4.102-8.741 3.532-8.741-.268 0-1.117 1.238-1.887 2.75"/><path fill="#1976D2" fill-opacity=".942" fill-rule="evenodd" d="M116.549 1.144C81.844 5.593 53.706 30.501 44.978 64.5c-2.862 11.147-2.862 29.853 0 41 7.781 30.309 31.242 53.79 61.432 61.484 10.722 2.733 31.028 2.794 41.09.124 15.429-4.093 26.285-10.061 37.255-20.478 15.356-14.584 24.068-32.217 26.125-52.88 4.664-46.841-27.796-87.052-74.854-92.728-9.418-1.136-9.676-1.134-19.477.122m-4.049 3.29C94.005 8.111 79.429 16.229 66.888 29.835c-23.829 25.853-28.46 62.921-11.772 94.231 3.211 6.024 10.287 14.895 11.115 13.934.237-.275 5.968-7.363 12.736-15.75S91.452 107 91.671 107c1.012 0 5.329 3.326 5.329 4.106 0 .482-3.876 5.66-8.614 11.506-6.391 7.887-8.272 10.84-7.29 11.448 1.408.87.892 1.69-5.381 8.556l-2.847 3.115 4.316 3.72c5.579 4.809 22.383 12.877 31.243 15 8.962 2.148 27.911 2.21 36.919.121 23.718-5.501 44.426-22.062 55.108-44.072 15.529-31.997 9.183-68.205-16.386-93.5-11.502-11.378-21.878-17.31-37.629-21.511-8.38-2.236-25.349-2.763-33.939-1.055m33.708 37.605c-.747 1.196-1.777 1.741-2.491 1.318-.669-.397.736 1.419 3.123 4.036 6.91 7.574 9.597 14.444 9.631 24.625.026 7.62-.314 9.214-3.221 15.122-9.929 20.179-33.055 26.593-52.215 14.482-5.292-3.346-5.507-3.394-6.818-1.522-.745 1.064-1.886 1.631-2.535 1.262s.168.791 1.818 2.578c7.275 7.879 21.732 12.107 33.882 9.908 3.915-.708 7.568-1.317 8.118-1.354.55-.036 3.475-1.669 6.5-3.628 11.496-7.445 20.262-20.192 20.878-30.358.167-2.745.473-5.267.681-5.603.853-1.38-1.827-13.763-4.022-18.58C157.417 49.671 149.704 40 148.113 40c-.347 0-1.205.917-1.905 2.039M104 124.953c-4.125.378-6.825.821-6 .985s2.175.227 3 .139c1.305-.14 1.31-.033.04.82-1.273.855-1.26 1.213.098 2.792 3.247 3.774 2.833 5.299-.819 3.017-.649-.406-1.463-.281-1.809.278S96.559 134 94.941 134s-2.941.295-2.941.655 3.574 4.144 7.942 8.408l7.942 7.752 5.238-1.536c3.743-1.097 5.711-1.24 6.896-.5 1.25.781 3.018.379 7.187-1.636l5.529-2.672-2.367-3.069c-1.51-1.958-1.914-3.115-1.117-3.195.688-.07 4.625-.575 8.75-1.123s11.1-1.079 15.5-1.18l8-.184-10-.788c-5.5-.433-12.925-1.037-16.5-1.342s-11.738-.563-18.141-.572l-11.64-.018-.409-3.5-.408-3.5h16.465c9.057 0 16.279-.18 16.05-.401-.853-.821-25.687-1.308-32.917-.646m38.813.73c.721.289 1.584.253 1.916-.079s-.258-.568-1.312-.525c-1.165.048-1.402.285-.604.604m39.456 5.01c.973.254 2.323.237 3-.037s-.119-.481-1.769-.461-2.204.244-1.231.498m13.538 70.057c-.827.963-1.782 2.537-2.124 3.5-.341.963-1.295 1.75-2.12 1.75-.923 0-1.279.578-.925 1.5.4 1.041-.069 1.5-1.531 1.5-1.514 0-2.111-.633-2.122-2.25-.031-4.569-1.577-5.107-3.807-1.326-2.134 3.615-5.178 4.836-5.178 2.076 0-2.58-1.932-1.636-2.559 1.25-.328 1.512-1.079 3.746-1.668 4.962-1.436 2.968-6.805 8.386-7.738 7.809-.69-.426-.188-4.846 1.535-13.521.921-4.641-.723-2.906-2.925 3.087-.927 2.522-2.337 5.447-3.134 6.5-1.36 1.797-1.449 1.716-1.479-1.337-.019-1.931.765-4.047 1.932-5.214 1.096-1.096 1.537-2.226 1-2.559-1.533-.946-2.758.308-3.471 3.553-.46 2.095-1.844 3.682-4.567 5.238-3.58 2.045-3.857 2.504-3.306 5.482.468 2.523.257 3.25-.941 3.25-2.108 0-2.947-3.166-1.704-6.433 1.262-3.322 1.28-3.843.104-3.116-.506.313-2.342 4.835-4.079 10.049s-3.525 9.707-3.974 9.984c-1.471.909-2.265-2.826-2.772-13.04-.549-11.069.39-13.444 5.317-13.444 1.336 0 2.429-.437 2.429-.971 0-.535 1.432-1.343 3.182-1.796s3.363-1.367 3.583-2.029c.465-1.395-2.37-1.652-3.211-.291-.311.502-2.362 1.217-4.559 1.588S141 207.586 141 208.088s-.47.912-1.045.912c-.653 0-.799-1.313-.389-3.5.412-2.195.265-3.5-.393-3.5-.578 0-1.344 1.956-1.702 4.347-.573 3.82-1.156 4.612-4.812 6.538-2.287 1.206-3.33 1.948-2.316 1.649 6.867-2.022 6.657-2.107 6.657 2.714 0 3.573-.708 5.391-3.546 9.108-1.95 2.554-3.741 4.644-3.979 4.644-.239 0-1.371-1.837-2.516-4.081-1.932-3.787-1.968-4.256-.498-6.5.876-1.337 1.118-2.419.541-2.419-.575 0-1.56 1.13-2.189 2.511-.952 2.089-.756 3.341 1.164 7.44 2.211 4.721 2.239 5.073.666 8.39-1.913 4.031-2.036 5.298-.599 6.186 1.881 1.162 3.956-1.698 3.956-5.452 0-2.577.975-5.011 3.25-8.115l3.25-4.433.311 2.986c1.208 11.624 4.426 13.519 7.599 4.475 2.381-6.787 1.99-6.374 4.554-4.807 1.886 1.153 2.345 1.067 3.641-.681.817-1.1 1.243-2.963.948-4.141-.385-1.537.166-2.6 1.955-3.773 2.364-1.548 2.492-1.531 2.492.332 0 3.105 2.096 3.602 4.115.976l1.841-2.394.022 3.143c.014 2.082-.568 3.372-1.728 3.821-1.581.613-1.597.793-.166 1.857.872.649 1.9 2.529 2.285 4.179 1.868 8.004 4.671 11.163 6.64 7.483 1.455-2.718.279-6.464-3.051-9.72l-2.833-2.77 5.434-5.656c2.99-3.11 5.688-5.246 5.997-4.746 1.038 1.678 2.356.932 4.857-2.749l2.486-3.658 1.211 2.658c1.388 3.046 3.43 3.384 6.061 1.003 1.704-1.541 1.961-1.536 3.746.08 1.554 1.407 2.323 1.517 4.067.584 2.456-1.315 8.021-9.623 8.007-11.955-.006-.855-1.313.718-2.906 3.495-3.564 6.215-5.496 7.92-7.822 6.908-1.493-.649-1.525-.825-.211-1.147.861-.211 2.092-2.399 2.765-4.916 1.641-6.135.191-8.371-3.01-4.644m.28 2.088c-.687 1.283-1.052 2.531-.811 2.772.786.785 2.925-2.506 2.486-3.824-.27-.81-.885-.424-1.675 1.052m-81.587 5.79c-3.85 1.988-7.371 3.953-7.824 4.367-.454.415-1.054 5.197-1.335 10.629s-.977 10.438-1.548 11.126c-.726.874-.7 1.25.085 1.25.617 0 1.122 1.321 1.122 2.935 0 3.877 1.616 7.981 3.415 8.671 2.065.792 7.361-1.97 12.585-6.564 6.012-5.286 4.842-5.079-2.52.447-3.289 2.47-7.004 4.495-8.255 4.5-2.593.012-4.225-3.211-4.225-8.344 0-2.811.637-3.597 4.973-6.129 2.735-1.597 4.779-3.098 4.542-3.334-.236-.236-2.05.526-4.029 1.694-5.561 3.281-5.854 2.992-5.107-5.041 1.005-10.818 1.247-11.33 6.445-13.647 2.572-1.147 5.689-2.363 6.926-2.704 1.237-.34 2.25-1.263 2.25-2.051 0-1.82.634-2.006-7.5 2.195m-40.318 2.817c-3.435 3.913-6.608 13.009-7.705 22.091-1.362 11.27-2.413 9.211-2.571-5.036-.133-11.981-.284-13.207-1.046-8.5-1.375 8.485.604 29.905 2.576 27.889.209-.214 1.137-5.542 2.061-11.839 1.905-12.976 4.447-20.71 7.863-23.919 2.132-2.003 2.459-2.054 3.682-.58.738.889 1.536 4.292 1.773 7.562.395 5.465.149 6.367-3.041 11.172C72.802 237.773 71 241.542 71 244.45c0 3.578 2.421 3.227 4.833-.7 6.862-11.17 8.471-33.51 2.554-35.459-.613-.201-2.505 1.218-4.205 3.154m103.264-.358c-.369.598-.213 1.546.348 2.107.694.694 1.382.346 2.149-1.087.91-1.7.843-2.107-.349-2.107-.812 0-1.778.489-2.148 1.087m9.554.496c0 1.766 2.153 1.459 2.771-.395.218-.654-.317-1.188-1.188-1.188-.87 0-1.583.713-1.583 1.583m-98.926 14.828C84.811 230.342 86.099 239 89.946 239c2.806 0 11.288-11.1 9.697-12.69-.277-.277-1.391 1.227-2.476 3.343-2.396 4.673-6.627 8.799-8.093 7.893-1.575-.974-1.322-2.415.926-5.273 3.52-4.475 1.649-10.169-1.926-5.862m1.057.931c-.713.859-1.127 2.371-.92 3.36.33 1.578.532 1.516 1.648-.507 1.588-2.881 1.049-4.994-.728-2.853M166 230.953c0 2.471 2.052 7.047 3.161 7.047 1.178 0 1.047-4.743-.196-7.066-1.336-2.496-2.965-2.486-2.965.019m-88.662 2.187c-1.419 1.774-3.9 6.763-4.779 9.61-1.372 4.449 1.338 2.161 3.929-3.317 2.578-5.448 3.066-9.06.85-6.293M127 239.5c0 .825.177 1.5.393 1.5s.652-.675.969-1.5.139-1.5-.393-1.5c-.533 0-.969.675-.969 1.5"/></svg>